<svg xmlns="http://www.w3.org/2000/svg" viewBox="0 0 53 53" shape-rendering="crispEdges"><rect width="53" height="53" fill="#fff"/><path d="M4 4h7v1h-7zM12 4h1v1h-1zM14 4h1v1h-1zM17 4h2v1h-2zM20 4h2v1h-2zM23 4h3v1h-3zM29 4h3v1h-3zM34 4h3v1h-3zM40 4h1v1h-1zM42 4h7v1h-7zM4 5h1v1h-1zM10 5h1v1h-1zM13 5h1v1h-1zM15 5h1v1h-1zM19 5h1v1h-1zM21 5h1v1h-1zM23 5h3v1h-3zM27 5h2v1h-2zM31 5h2v1h-2zM36 5h1v1h-1zM39 5h1v1h-1zM42 5h1v1h-1zM48 5h1v1h-1zM4 6h1v1h-1zM6 6h3v1h-3zM10 6h1v1h-1zM13 6h2v1h-2zM17 6h1v1h-1zM20 6h2v1h-2zM23 6h1v1h-1zM26 6h1v1h-1zM28 6h1v1h-1zM30 6h1v1h-1zM32 6h1v1h-1zM34 6h1v1h-1zM36 6h2v1h-2zM39 6h1v1h-1zM42 6h1v1h-1zM44 6h3v1h-3zM48 6h1v1h-1zM4 7h1v1h-1zM6 7h3v1h-3zM10 7h1v1h-1zM12 7h3v1h-3zM16 7h2v1h-2zM19 7h1v1h-1zM24 7h3v1h-3zM28 7h1v1h-1zM32 7h4v1h-4zM39 7h2v1h-2zM42 7h1v1h-1zM44 7h3v1h-3zM48 7h1v1h-1zM4 8h1v1h-1zM6 8h3v1h-3zM10 8h1v1h-1zM12 8h1v1h-1zM17 8h1v1h-1zM19 8h2v1h-2zM22 8h1v1h-1zM24 8h5v1h-5zM30 8h1v1h-1zM33 8h2v1h-2zM36 8h1v1h-1zM38 8h3v1h-3zM42 8h1v1h-1zM44 8h3v1h-3zM48 8h1v1h-1zM4 9h1v1h-1zM10 9h1v1h-1zM12 9h1v1h-1zM14 9h4v1h-4zM19 9h1v1h-1zM21 9h1v1h-1zM23 9h2v1h-2zM28 9h2v1h-2zM35 9h2v1h-2zM42 9h1v1h-1zM48 9h1v1h-1zM4 10h7v1h-7zM12 10h1v1h-1zM14 10h1v1h-1zM16 10h1v1h-1zM18 10h1v1h-1zM20 10h1v1h-1zM22 10h1v1h-1zM24 10h1v1h-1zM26 10h1v1h-1zM28 10h1v1h-1zM30 10h1v1h-1zM32 10h1v1h-1zM34 10h1v1h-1zM36 10h1v1h-1zM38 10h1v1h-1zM40 10h1v1h-1zM42 10h7v1h-7zM12 11h2v1h-2zM17 11h1v1h-1zM20 11h5v1h-5zM28 11h4v1h-4zM36 11h5v1h-5zM4 12h1v1h-1zM8 12h1v1h-1zM10 12h3v1h-3zM16 12h1v1h-1zM20 12h2v1h-2zM23 12h9v1h-9zM34 12h1v1h-1zM36 12h4v1h-4zM41 12h5v1h-5zM48 12h1v1h-1zM4 13h6v1h-6zM13 13h4v1h-4zM18 13h2v1h-2zM22 13h4v1h-4zM27 13h2v1h-2zM30 13h5v1h-5zM37 13h1v1h-1zM39 13h6v1h-6zM46 13h1v1h-1zM9 14h2v1h-2zM12 14h4v1h-4zM18 14h2v1h-2zM21 14h1v1h-1zM23 14h1v1h-1zM25 14h3v1h-3zM30 14h1v1h-1zM32 14h2v1h-2zM35 14h1v1h-1zM37 14h1v1h-1zM40 14h5v1h-5zM46 14h2v1h-2zM4 15h2v1h-2zM7 15h3v1h-3zM12 15h1v1h-1zM17 15h1v1h-1zM20 15h1v1h-1zM22 15h1v1h-1zM26 15h1v1h-1zM29 15h1v1h-1zM36 15h3v1h-3zM40 15h1v1h-1zM43 15h1v1h-1zM45 15h1v1h-1zM4 16h3v1h-3zM8 16h3v1h-3zM13 16h1v1h-1zM15 16h1v1h-1zM18 16h1v1h-1zM21 16h2v1h-2zM24 16h1v1h-1zM26 16h1v1h-1zM28 16h1v1h-1zM30 16h2v1h-2zM33 16h2v1h-2zM36 16h3v1h-3zM42 16h2v1h-2zM47 16h1v1h-1zM7 17h1v1h-1zM9 17h1v1h-1zM13 17h1v1h-1zM15 17h2v1h-2zM19 17h3v1h-3zM23 17h4v1h-4zM28 17h1v1h-1zM30 17h2v1h-2zM33 17h2v1h-2zM37 17h1v1h-1zM39 17h2v1h-2zM42 17h1v1h-1zM45 17h2v1h-2zM4 18h1v1h-1zM9 18h2v1h-2zM12 18h1v1h-1zM20 18h2v1h-2zM25 18h1v1h-1zM29 18h1v1h-1zM32 18h1v1h-1zM35 18h3v1h-3zM45 18h1v1h-1zM7 19h1v1h-1zM9 19h1v1h-1zM12 19h1v1h-1zM14 19h2v1h-2zM18 19h2v1h-2zM22 19h2v1h-2zM30 19h3v1h-3zM34 19h3v1h-3zM38 19h3v1h-3zM47 19h1v1h-1zM5 20h1v1h-1zM7 20h4v1h-4zM12 20h4v1h-4zM17 20h1v1h-1zM21 20h2v1h-2zM24 20h1v1h-1zM28 20h4v1h-4zM36 20h1v1h-1zM39 20h1v1h-1zM42 20h1v1h-1zM45 20h1v1h-1zM47 20h1v1h-1zM5 21h1v1h-1zM7 21h1v1h-1zM9 21h1v1h-1zM12 21h1v1h-1zM15 21h1v1h-1zM17 21h3v1h-3zM22 21h5v1h-5zM28 21h1v1h-1zM30 21h1v1h-1zM32 21h6v1h-6zM39 21h2v1h-2zM42 21h2v1h-2zM45 21h2v1h-2zM4 22h2v1h-2zM7 22h2v1h-2zM10 22h1v1h-1zM15 22h2v1h-2zM18 22h7v1h-7zM26 22h1v1h-1zM29 22h3v1h-3zM33 22h2v1h-2zM37 22h1v1h-1zM40 22h2v1h-2zM6 23h1v1h-1zM11 23h1v1h-1zM13 23h2v1h-2zM19 23h1v1h-1zM21 23h2v1h-2zM25 23h2v1h-2zM29 23h1v1h-1zM34 23h1v1h-1zM37 23h2v1h-2zM40 23h5v1h-5zM48 23h1v1h-1zM4 24h1v1h-1zM7 24h6v1h-6zM21 24h8v1h-8zM30 24h1v1h-1zM36 24h2v1h-2zM39 24h7v1h-7zM47 24h1v1h-1zM4 25h2v1h-2zM7 25h2v1h-2zM12 25h2v1h-2zM19 25h1v1h-1zM23 25h2v1h-2zM28 25h1v1h-1zM30 25h1v1h-1zM32 25h6v1h-6zM39 25h2v1h-2zM44 25h3v1h-3zM4 26h3v1h-3zM8 26h1v1h-1zM10 26h1v1h-1zM12 26h1v1h-1zM15 26h2v1h-2zM18 26h1v1h-1zM20 26h2v1h-2zM24 26h1v1h-1zM26 26h1v1h-1zM28 26h1v1h-1zM30 26h1v1h-1zM32 26h2v1h-2zM36 26h1v1h-1zM38 26h1v1h-1zM40 26h1v1h-1zM42 26h1v1h-1zM44 26h2v1h-2zM47 26h1v1h-1zM4 27h2v1h-2zM8 27h1v1h-1zM12 27h1v1h-1zM15 27h1v1h-1zM17 27h2v1h-2zM20 27h1v1h-1zM23 27h2v1h-2zM28 27h2v1h-2zM31 27h1v1h-1zM33 27h2v1h-2zM37 27h4v1h-4zM44 27h1v1h-1zM47 27h2v1h-2zM7 28h7v1h-7zM17 28h1v1h-1zM22 28h7v1h-7zM30 28h2v1h-2zM34 28h1v1h-1zM36 28h3v1h-3zM40 28h6v1h-6zM6 29h1v1h-1zM8 29h2v1h-2zM13 29h1v1h-1zM17 29h1v1h-1zM19 29h4v1h-4zM26 29h1v1h-1zM28 29h10v1h-10zM40 29h2v1h-2zM43 29h1v1h-1zM45 29h1v1h-1zM47 29h1v1h-1zM7 30h1v1h-1zM10 30h2v1h-2zM16 30h2v1h-2zM19 30h1v1h-1zM22 30h1v1h-1zM24 30h1v1h-1zM26 30h3v1h-3zM30 30h1v1h-1zM34 30h3v1h-3zM40 30h2v1h-2zM46 30h2v1h-2zM4 31h1v1h-1zM9 31h1v1h-1zM11 31h1v1h-1zM13 31h4v1h-4zM21 31h2v1h-2zM24 31h2v1h-2zM31 31h1v1h-1zM33 31h1v1h-1zM36 31h7v1h-7zM48 31h1v1h-1zM4 32h8v1h-8zM13 32h2v1h-2zM16 32h1v1h-1zM18 32h2v1h-2zM21 32h2v1h-2zM24 32h2v1h-2zM27 32h1v1h-1zM29 32h3v1h-3zM36 32h1v1h-1zM38 32h1v1h-1zM41 32h1v1h-1zM43 32h3v1h-3zM47 32h2v1h-2zM4 33h1v1h-1zM6 33h1v1h-1zM8 33h1v1h-1zM12 33h1v1h-1zM14 33h1v1h-1zM20 33h1v1h-1zM22 33h2v1h-2zM28 33h1v1h-1zM30 33h5v1h-5zM37 33h1v1h-1zM39 33h3v1h-3zM43 33h1v1h-1zM45 33h2v1h-2zM4 34h2v1h-2zM7 34h4v1h-4zM13 34h3v1h-3zM19 34h2v1h-2zM23 34h1v1h-1zM26 34h2v1h-2zM30 34h1v1h-1zM35 34h2v1h-2zM40 34h1v1h-1zM43 34h3v1h-3zM47 34h1v1h-1zM4 35h1v1h-1zM7 35h2v1h-2zM11 35h1v1h-1zM15 35h1v1h-1zM17 35h2v1h-2zM22 35h3v1h-3zM26 35h1v1h-1zM28 35h2v1h-2zM31 35h2v1h-2zM35 35h2v1h-2zM40 35h1v1h-1zM42 35h4v1h-4zM7 36h2v1h-2zM10 36h2v1h-2zM15 36h1v1h-1zM17 36h1v1h-1zM19 36h1v1h-1zM22 36h1v1h-1zM24 36h2v1h-2zM30 36h2v1h-2zM33 36h1v1h-1zM36 36h1v1h-1zM40 36h2v1h-2zM45 36h1v1h-1zM6 37h3v1h-3zM13 37h1v1h-1zM16 37h2v1h-2zM19 37h1v1h-1zM21 37h1v1h-1zM27 37h1v1h-1zM30 37h5v1h-5zM36 37h1v1h-1zM39 37h1v1h-1zM43 37h1v1h-1zM47 37h1v1h-1zM8 38h1v1h-1zM10 38h3v1h-3zM14 38h1v1h-1zM18 38h1v1h-1zM20 38h1v1h-1zM22 38h1v1h-1zM24 38h5v1h-5zM31 38h1v1h-1zM33 38h2v1h-2zM36 38h1v1h-1zM39 38h1v1h-1zM41 38h1v1h-1zM44 38h4v1h-4zM5 39h4v1h-4zM14 39h1v1h-1zM16 39h4v1h-4zM21 39h2v1h-2zM24 39h1v1h-1zM26 39h1v1h-1zM32 39h1v1h-1zM35 39h3v1h-3zM42 39h1v1h-1zM44 39h1v1h-1zM47 39h1v1h-1zM4 40h1v1h-1zM7 40h2v1h-2zM10 40h1v1h-1zM12 40h4v1h-4zM17 40h1v1h-1zM19 40h10v1h-10zM31 40h1v1h-1zM33 40h4v1h-4zM40 40h5v1h-5zM47 40h1v1h-1zM12 41h3v1h-3zM21 41h1v1h-1zM24 41h1v1h-1zM28 41h4v1h-4zM33 41h3v1h-3zM39 41h2v1h-2zM44 41h4v1h-4zM4 42h7v1h-7zM12 42h1v1h-1zM15 42h5v1h-5zM21 42h1v1h-1zM23 42h2v1h-2zM26 42h1v1h-1zM28 42h1v1h-1zM32 42h3v1h-3zM40 42h1v1h-1zM42 42h1v1h-1zM44 42h2v1h-2zM47 42h1v1h-1zM4 43h1v1h-1zM10 43h1v1h-1zM16 43h2v1h-2zM20 43h3v1h-3zM24 43h1v1h-1zM28 43h4v1h-4zM36 43h3v1h-3zM40 43h1v1h-1zM44 43h1v1h-1zM48 43h1v1h-1zM4 44h1v1h-1zM6 44h3v1h-3zM10 44h1v1h-1zM12 44h1v1h-1zM14 44h1v1h-1zM19 44h1v1h-1zM21 44h9v1h-9zM31 44h1v1h-1zM33 44h1v1h-1zM36 44h1v1h-1zM38 44h8v1h-8zM47 44h2v1h-2zM4 45h1v1h-1zM6 45h3v1h-3zM10 45h1v1h-1zM13 45h5v1h-5zM19 45h1v1h-1zM21 45h1v1h-1zM24 45h1v1h-1zM27 45h2v1h-2zM30 45h5v1h-5zM37 45h1v1h-1zM40 45h3v1h-3zM44 45h1v1h-1zM46 45h1v1h-1zM4 46h1v1h-1zM6 46h3v1h-3zM10 46h1v1h-1zM14 46h3v1h-3zM18 46h1v1h-1zM22 46h3v1h-3zM26 46h3v1h-3zM30 46h1v1h-1zM33 46h2v1h-2zM37 46h1v1h-1zM41 46h1v1h-1zM43 46h2v1h-2zM46 46h2v1h-2zM4 47h1v1h-1zM10 47h1v1h-1zM13 47h1v1h-1zM16 47h5v1h-5zM24 47h1v1h-1zM27 47h2v1h-2zM31 47h1v1h-1zM33 47h1v1h-1zM36 47h2v1h-2zM40 47h2v1h-2zM43 47h1v1h-1zM45 47h1v1h-1zM4 48h7v1h-7zM12 48h1v1h-1zM14 48h3v1h-3zM20 48h3v1h-3zM24 48h5v1h-5zM33 48h2v1h-2zM36 48h1v1h-1zM38 48h4v1h-4zM48 48h1v1h-1z" fill="#000"/></svg>